# xmcd
#
# Track frame offsets:
#	150
#	14455
#	26794
#	38304
#	50617
#	62413
#	74213
#	85687
#	98996
#	112991
#	123536
#	135664
#	147528
#	159454
#	170954
#	182168
#	193760
#	205559
#	216487
#	229257
#
# Disc length: 3210 seconds
#
# Revision: 0
# Processed by: cddbd v1.5.1PL2 Copyright (c) Steve Scherf et al.
# Submitted via: audiograbber 1.83.01
#
DISCID=2c0c8814
DTITLE=Various Artist - Country and Western Original Masters - CD 9
DYEAR=1900
DGENRE=Country
TTITLE0=Billy Haley (1949) - The Covered Wagon (Wood - Heath)
TTITLE1=Floyd Tillman (1949) - Slippin' Around (Tillman)
TTITLE2=Eddie Kirk (1949) - Candy Kisses (Morgan)
TTITLE3=Leon Payne (1949) - I Love You Because (Payne)
TTITLE4=Bill Haley (1949) - Wreck On the Highway (Acuff)
TTITLE5=Curley Williams (1949) - Fiddlin' Boogie (Williams)
TTITLE6=The Stanley Brothers (1949) - The Fields Have Turned Brown (STanley)
TTITLE7=Hank Williams (1949) - You're Gonna Change (Williams)
TTITLE8=Tommy Duncan (1949) - Gamblin' Polkadot Blues (Rogers - Hall)
TTITLE9=Hank Thompson (1949) - Whoa Sailor (Thompson)
TTITLE10=Hank Williams (1949) - Lost Highway (Payne)
TTITLE11=Billy Briggs (1949) - Panhandle Shuffle (Briggs)
TTITLE12=Tiny Colbert (1949) - Holes in my Soles (Colbert)
TTITLE13=Hank Williams (1949) - My Bucket's Got a Hole In It (Williams)
TTITLE14=Lone Star Playboys (1949) - Steel Guitar Bounce (Nason)
TTITLE15=Tennessee Ernie Ford (1950) - Shotgun Boogie (Travis)
TTITLE16=Hank Williams (1950) - Long Gone Lonesome Blues (Williams)
TTITLE17=Johnny Hicks (1950) - Hamburger Hop (Williamson - Leisy)
TTITLE18=Johnny Bond (1950) - Mean Mama Boogie (Bond)
TTITLE19=Tennessee Ernie Ford (1950) - I'll Never Be Free (Benjamin - Weiss)
EXTD=
EXTT0=
EXTT1=
EXTT2=
EXTT3=
EXTT4=
EXTT5=
EXTT6=
EXTT7=
EXTT8=
EXTT9=
EXTT10=
EXTT11=
EXTT12=
EXTT13=
EXTT14=
EXTT15=
EXTT16=
EXTT17=
EXTT18=
EXTT19=
PLAYORDER=
